HIERARCHY
ROOT Hips
{
	OFFSET 0.000000 35.082581 0.000000
	CHANNELS 6 Xposition Yposition Zposition Xrotation Yrotation Zrotation 
	JOINT Spine
	{
		OFFSET 0.000000 6.876099 0.125700
		CHANNELS 3 Xrotation Yrotation Zrotation
		JOINT Spine1
		{
			OFFSET 0.000000 5.730043 0.104720
			CHANNELS 3 Xrotation Yrotation Zrotation
			JOINT Spine1_split
			{
				OFFSET 0.000000 5.730043 0.104720
				CHANNELS 3 Xrotation Yrotation Zrotation
				JOINT Spine2
				{
					OFFSET 0.000000 5.730043 0.104720
					CHANNELS 3 Xrotation Yrotation Zrotation
					JOINT Neck
					{
						OFFSET 0.000000 10.314075 0.188496
						CHANNELS 3 Xrotation Yrotation Zrotation
						JOINT Head
						{
							OFFSET 0.000000 7.643700 -2.377400
							CHANNELS 3 Xrotation Yrotation Zrotation
							JOINT HeadTop_End
							{
								OFFSET 0.000000 43.788605 -13.619600
								CHANNELS 3 Xrotation Yrotation Zrotation
								End Site
								{
									OFFSET 0.000000 0.000000 0.000000
								}
							}
						}
					}
					JOINT LeftShoulder
					{
						OFFSET 2.196100 4.412489 0.087492
						CHANNELS 3 Xrotation Yrotation Zrotation
						JOINT LeftShoulder_split
						{
							OFFSET 2.196100 4.412489 0.087492
							CHANNELS 3 Xrotation Yrotation Zrotation
							JOINT LeftArm
							{
								OFFSET 8.771219 -2.981674 -0.026999
								CHANNELS 3 Xrotation Yrotation Zrotation
								JOINT LeftForeArm
								{
									OFFSET 8.512804 0.000000 -0.000000
									CHANNELS 3 Xrotation Yrotation Zrotation
									JOINT LeftHand
									{
										OFFSET 18.484802 0.000000 -0.000000
										CHANNELS 3 Xrotation Yrotation Zrotation
										JOINT LeftHandThumb1
										{
											OFFSET 2.499420 -1.158070 2.653252
											CHANNELS 3 Xrotation Yrotation Zrotation
											JOINT LeftHandThumb2
											{
												OFFSET 2.370079 -1.368366 1.368366
												CHANNELS 3 Xrotation Yrotation Zrotation
												JOINT LeftHandThumb3
												{
													OFFSET 2.676727 -1.545410 1.545409
													CHANNELS 3 Xrotation Yrotation Zrotation
													JOINT LeftHandThumb4
													{
														OFFSET 1.692226 -0.977005 0.977007
														CHANNELS 3 Xrotation Yrotation Zrotation
														End Site
														{
															OFFSET 0.000000 0.000000 0.000000
														}
													}
												}
											}
										}
										JOINT LeftHandIndex1
										{
											OFFSET 7.924831 -0.457527 2.345128
											CHANNELS 3 Xrotation Yrotation Zrotation
											JOINT LeftHandIndex2
											{
												OFFSET 3.643303 0.000000 0.000000
												CHANNELS 3 Xrotation Yrotation Zrotation
												JOINT LeftHandIndex3
												{
													OFFSET 3.810799 0.000000 0.000000
													CHANNELS 3 Xrotation Yrotation Zrotation
													JOINT LeftHandIndex4
													{
														OFFSET 2.403702 0.000000 0.000000
														CHANNELS 3 Xrotation Yrotation Zrotation
														End Site
														{
															OFFSET 0.000000 0.000000 0.000000
														}
													}
												}
											}
										}
										JOINT LeftHandMiddle1
										{
											OFFSET 8.563995 0.000000 -0.000000
											CHANNELS 3 Xrotation Yrotation Zrotation
											JOINT LeftHandMiddle2
											{
												OFFSET 3.861618 0.000000 0.000000
												CHANNELS 3 Xrotation Yrotation Zrotation
												JOINT LeftHandMiddle3
												{
													OFFSET 3.701603 0.000000 0.000000
													CHANNELS 3 Xrotation Yrotation Zrotation
													JOINT LeftHandMiddle4
													{
														OFFSET 2.322544 0.000000 0.000000
														CHANNELS 3 Xrotation Yrotation Zrotation
														End Site
														{
															OFFSET 0.000000 0.000000 0.000000
														}
													}
												}
											}
										}
										JOINT LeftHandRing1
										{
											OFFSET 8.426460 -0.424637 -3.286992
											CHANNELS 3 Xrotation Yrotation Zrotation
											JOINT LeftHandRing2
											{
												OFFSET 3.126408 0.000000 0.000000
												CHANNELS 3 Xrotation Yrotation Zrotation
												JOINT LeftHandRing3
												{
													OFFSET 3.085026 0.000000 0.000000
													CHANNELS 3 Xrotation Yrotation Zrotation
													JOINT LeftHandRing4
													{
														OFFSET 1.644005 0.000000 0.000000
														CHANNELS 3 Xrotation Yrotation Zrotation
														End Site
														{
															OFFSET 0.000000 0.000000 0.000000
														}
													}
												}
											}
										}
									}
								}
							}
						}
					}
					JOINT RightShoulder
					{
						OFFSET -2.196100 4.412496 0.070690
						CHANNELS 3 Xrotation Yrotation Zrotation
						JOINT RightShoulder_split
						{
							OFFSET -2.196100 4.412496 0.070690
							CHANNELS 3 Xrotation Yrotation Zrotation
							JOINT RightArm
							{
								OFFSET -8.771282 -2.981682 -0.094208
								CHANNELS 3 Xrotation Yrotation Zrotation
								JOINT RightForeArm
								{
									OFFSET -8.494598 0.000000 0.000000
									CHANNELS 3 Xrotation Yrotation Zrotation
									JOINT RightHand
									{
										OFFSET -18.483803 0.000000 0.000001
										CHANNELS 3 Xrotation Yrotation Zrotation
										JOINT RightHandThumb1
										{
											OFFSET -2.527351 -1.008072 2.575253
											CHANNELS 3 Xrotation Yrotation Zrotation
											JOINT RightHandThumb2
											{
												OFFSET -2.321518 -1.340328 1.340329
												CHANNELS 3 Xrotation Yrotation Zrotation
												JOINT RightHandThumb3
												{
													OFFSET -2.657753 -1.534454 1.534455
													CHANNELS 3 Xrotation Yrotation Zrotation
													JOINT RightHandThumb4
													{
														OFFSET -1.807510 -1.043568 1.043567
														CHANNELS 3 Xrotation Yrotation Zrotation
														End Site
														{
															OFFSET 0.000000 0.000000 0.000000
														}
													}
												}
											}
										}
										JOINT RightHandIndex1
										{
											OFFSET -8.811420 0.015533 2.887987
											CHANNELS 3 Xrotation Yrotation Zrotation
											JOINT RightHandIndex2
											{
												OFFSET -3.537502 0.000000 0.000000
												CHANNELS 3 Xrotation Yrotation Zrotation
												JOINT RightHandIndex3
												{
													OFFSET -3.356201 0.000000 0.000000
													CHANNELS 3 Xrotation Yrotation Zrotation
													JOINT RightHandIndex4
													{
														OFFSET -1.933098 0.000000 0.000000
														CHANNELS 3 Xrotation Yrotation Zrotation
														End Site
														{
															OFFSET 0.000000 0.000000 0.000000
														}
													}
												}
											}
										}
										JOINT RightHandMiddle1
										{
											OFFSET -8.178135 0.000000 0.000000
											CHANNELS 3 Xrotation Yrotation Zrotation
											JOINT RightHandMiddle2
											{
												OFFSET -3.901302 0.000000 0.000000
												CHANNELS 3 Xrotation Yrotation Zrotation
												JOINT RightHandMiddle3
												{
													OFFSET -3.909599 0.000000 0.000000
													CHANNELS 3 Xrotation Yrotation Zrotation
													JOINT RightHandMiddle4
													{
														OFFSET -2.376003 0.000000 0.000000
														CHANNELS 3 Xrotation Yrotation Zrotation
														End Site
														{
															OFFSET 0.000000 0.000000 0.000000
														}
													}
												}
											}
										}
										JOINT RightHandRing1
										{
											OFFSET -7.559013 0.014137 -2.865403
											CHANNELS 3 Xrotation Yrotation Zrotation
											JOINT RightHandRing2
											{
												OFFSET -3.449306 0.000000 0.000000
												CHANNELS 3 Xrotation Yrotation Zrotation
												JOINT RightHandRing3
												{
													OFFSET -3.362106 0.000000 0.000000
													CHANNELS 3 Xrotation Yrotation Zrotation
													JOINT RightHandRing4
													{
														OFFSET -2.076401 0.000000 0.000000
														CHANNELS 3 Xrotation Yrotation Zrotation
														End Site
														{
															OFFSET 0.000000 0.000000 0.000000
														}
													}
												}
											}
										}
									}
								}
							}
						}
					}
				}
			}
		}
	}
	JOINT LeftUpLeg
	{
		OFFSET 10.205400 -3.823500 0.155100
		CHANNELS 3 Xrotation Yrotation Zrotation
		JOINT LeftLeg
		{
			OFFSET 0.708757 -12.982077 0.567790
			CHANNELS 3 Xrotation Yrotation Zrotation
			JOINT LeftFoot
			{
				OFFSET -0.708756 -10.717838 -2.184338
				CHANNELS 3 Xrotation Yrotation Zrotation
				JOINT LeftToeBase
				{
					OFFSET 0.108149 -7.191104 7.560241
					CHANNELS 3 Xrotation Yrotation Zrotation
					JOINT LeftToe_End
					{
						OFFSET 0.070230 0.081724 4.490308
						CHANNELS 3 Xrotation Yrotation Zrotation
						End Site
						{
							OFFSET 0.000000 0.000000 0.000000
						}
					}
				}
			}
		}
	}
	JOINT RightUpLeg
	{
		OFFSET -10.205400 -3.823500 0.005500
		CHANNELS 3 Xrotation Yrotation Zrotation
		JOINT RightLeg
		{
			OFFSET -0.708756 -12.982134 0.610632
			CHANNELS 3 Xrotation Yrotation Zrotation
			JOINT RightFoot
			{
				OFFSET 0.708754 -10.717769 -1.945823
				CHANNELS 3 Xrotation Yrotation Zrotation
				JOINT RightToeBase
				{
					OFFSET -0.108140 -7.191069 7.372968
					CHANNELS 3 Xrotation Yrotation Zrotation
					JOINT RightToe_End
					{
						OFFSET -0.070227 0.081735 4.479403
						CHANNELS 3 Xrotation Yrotation Zrotation
						End Site
						{
							OFFSET 0.000000 0.000000 0.000000
						}
					}
				}
			}
		}
	}
}
MOTION
Frames: 4
Frame Time: 0.016667
6.455902 29.673328 1.541951 9.508595 -0.360908 -10.019209 8.479193 -3.609480 -7.485085 6.795706 -2.703226 -6.539373 0.000000 0.000000 0.000000 6.822729 -2.529053 -6.561654 -6.756036 -0.095603 -6.250949 -31.736761 -12.121328 11.385208 -0.000001 -0.000000 -0.000000 0.657394 -5.474594 -9.273310 0.000000 0.000000 0.000000 -31.650864 6.573768 -19.060521 -0.000006 -57.717270 0.000007 -13.439160 -6.592297 17.306765 -6.000708 -6.126817 4.616758 7.611078 24.884956 2.404795 -4.383186 25.960685 19.454348 -0.000003 -0.000000 -0.000004 2.912874 7.374273 -59.057948 2.905681 5.057899 -59.732238 2.014386 4.420880 -48.976046 -0.000001 0.000004 -0.000002 2.252954 6.917819 -51.180773 3.608308 5.405549 -67.425872 1.924272 4.341071 -47.796680 -0.000001 -0.000000 0.000001 3.218378 7.543765 -62.485391 3.684679 5.436538 -68.234314 3.234231 5.235080 -63.393226 0.000000 0.000001 -0.000001 0.361045 -0.787754 2.746952 0.000000 0.000000 0.000000 26.141082 -12.666217 76.530835 0.000042 79.226807 -0.000028 -6.073260 16.835026 -10.845155 -7.540290 -3.885175 -4.751898 7.955437 -28.077811 -3.121230 -4.006977 -18.468400 -17.389986 -0.000000 0.000001 0.000002 0.055199 3.456518 6.528609 0.319248 -1.696234 21.316699 0.152999 -1.185134 14.711321 -0.000000 -0.000001 0.000001 -0.862795 -0.131514 17.725507 0.409676 -1.911719 24.188118 0.700069 -2.457677 31.794886 0.000000 0.000001 0.000002 2.184521 -6.710182 36.224192 0.531173 -2.161834 27.606160 0.891005 -2.741554 36.002836 -0.000003 0.000000 -0.000000 -58.124760 -13.636172 30.690895 61.675912 -6.851086 -3.016842 -9.115559 4.121825 -14.749785 0.285662 0.001576 -0.331273 0.000000 0.000002 0.000000 -28.990297 -24.159887 3.404194 51.292361 7.959654 -0.345242 -31.296944 -21.075310 -5.795966 -0.000006 0.000001 0.000003 0.000000 -0.000001 0.000000 
6.468155 29.566563 1.346958 9.256242 -1.447580 -9.753395 8.970277 -3.248670 -7.177683 7.111674 -2.571604 -6.414010 0.000000 0.000000 0.000000 7.134273 -2.412000 -6.415073 -6.827578 -0.078840 -6.203627 -31.801480 -11.665231 10.997515 -0.000000 0.000000 -0.000001 0.636260 -5.572588 -9.846418 0.000000 0.000000 0.000000 -30.413108 9.620331 -20.356766 0.000007 -56.737005 0.000011 -14.343204 -6.360662 17.068866 -6.000713 -6.126824 4.616755 7.611075 24.884958 2.404794 -4.383188 25.960688 19.454354 0.000002 0.000003 -0.000003 2.751046 7.274446 -57.192879 2.743393 4.960013 -57.873600 1.873414 4.294515 -47.120884 0.000002 -0.000001 0.000001 2.121133 6.809317 -49.506195 3.475115 5.348481 -66.004612 1.905571 4.324064 -47.548925 -0.000001 0.000003 0.000001 3.090068 7.475499 -61.059835 3.661143 5.427121 -67.985729 3.289385 5.262243 -63.996414 -0.000001 0.000000 -0.000001 0.435990 -0.154708 3.208111 0.000000 0.000000 0.000000 23.731627 -11.004971 75.385296 0.000016 77.036317 -0.000013 -6.027873 16.951350 -10.577463 -7.540291 -3.885173 -4.751893 7.955437 -28.077806 -3.121234 -4.006983 -18.468400 -17.389978 0.000001 -0.000002 0.000001 0.053062 3.449681 6.560497 0.320773 -1.700116 21.368030 0.154055 -1.189174 14.762571 0.000002 -0.000001 0.000001 -0.863770 -0.045910 17.352797 0.369558 -1.819836 22.956449 0.625848 -2.333813 30.019562 -0.000001 -0.000002 -0.000000 2.141062 -6.687485 35.625853 0.466207 -2.032811 25.830578 0.788266 -2.594436 33.795991 -0.000001 -0.000001 -0.000003 -57.844332 -13.827219 31.073102 62.570557 -6.316194 -3.050248 -9.609517 4.251565 -14.945098 0.216715 0.000911 -0.252241 0.000000 -0.000000 0.000000 -30.560445 -23.278670 3.384959 52.646743 7.988173 -0.358499 -31.109664 -21.168899 -6.154804 -0.000085 0.000001 0.000001 0.000000 0.000001 -0.000000 
6.472010 29.490837 1.242870 8.977784 -2.847321 -9.454198 9.419894 -2.885661 -6.893213 7.403569 -2.428328 -6.253431 0.000000 0.000000 0.000000 7.422369 -2.272621 -6.260124 -6.781101 -0.061877 -6.124013 -31.448192 -11.031245 10.615898 0.000001 -0.000001 0.000000 0.598235 -5.646894 -10.458150 0.000000 0.000000 0.000000 -29.130077 12.344775 -22.295093 -0.000015 -55.646968 -0.000023 -14.802850 -6.104336 16.567040 -6.000713 -6.126819 4.616757 7.611080 24.884959 2.404793 -4.383190 25.960690 19.454341 -0.000002 0.000003 -0.000002 2.566447 7.151418 -55.016641 2.558127 4.839167 -55.704714 1.714170 4.141378 -44.956097 0.000003 0.000001 0.000000 1.968712 6.675452 -47.516287 3.314498 5.274381 -64.269812 1.852191 4.274760 -46.836714 0.000001 0.000000 0.000001 2.935859 7.387884 -59.319995 3.593730 5.399484 -67.271155 3.297908 5.266375 -64.089311 -0.000000 0.000000 -0.000001 0.490277 0.533993 3.686078 0.000000 0.000000 0.000000 21.315692 -9.569339 74.194310 -0.000032 75.301374 0.000065 -5.901937 17.065880 -10.420048 -7.540289 -3.885170 -4.751892 7.955442 -28.077808 -3.121229 -4.006980 -18.468403 -17.389983 0.000000 0.000002 -0.000000 0.047264 3.429605 6.654572 0.325270 -1.711600 21.519460 0.157208 -1.201066 14.913790 0.000000 0.000003 -0.000001 -0.863924 -0.016313 17.224354 0.341036 -1.751034 22.041142 0.565508 -2.226213 28.502840 0.000000 -0.000000 -0.000000 2.108136 -6.669250 35.181215 0.413874 -1.921013 24.313660 0.699889 -2.457386 31.790682 0.000000 -0.000000 0.000000 -56.887017 -13.934901 31.768463 63.588569 -5.444487 -3.111557 -10.621917 4.523832 -15.448653 0.155599 0.000473 -0.182057 0.000000 0.000002 -0.000000 -31.801552 -22.547776 3.450160 53.616360 8.349012 -0.373539 -30.782396 -21.072894 -6.634936 0.000008 0.000015 -0.000000 0.000000 -0.000004 0.000000 
6.456328 29.425137 1.156699 8.779572 -3.958209 -9.193744 9.788863 -2.592073 -6.672489 7.641412 -2.286365 -6.122387 0.000000 0.000000 0.000000 7.656634 -2.105080 -6.121624 -6.723335 -0.048810 -5.995126 -31.190042 -10.624254 10.322449 -0.000000 0.000000 -0.000000 0.557991 -5.698691 -11.061375 0.000000 0.000000 0.000000 -27.972089 14.186046 -24.353210 -0.000003 -54.075144 0.000001 -14.800743 -5.737589 15.942794 -6.000710 -6.126818 4.616755 7.611078 24.884958 2.404800 -4.383194 25.960687 19.454348 -0.000000 0.000002 0.000003 2.366246 7.006036 -52.589308 2.357017 4.696176 -53.285342 1.543499 3.963507 -42.541365 -0.000003 0.000001 0.000000 1.801729 6.517429 -45.261304 3.131656 5.182657 -62.263581 1.768722 4.195139 -45.706581 0.000001 0.000001 -0.000001 2.760940 7.280781 -57.308081 3.487465 5.353937 -66.137268 3.275143 5.255305 -63.840870 -0.000000 0.000003 -0.000000 0.544765 1.131277 4.238784 0.000000 0.000000 0.000000 19.483460 -8.250630 73.006656 -0.000016 73.739050 0.000031 -5.737842 17.098178 -10.273460 -7.540291 -3.885176 -4.751898 7.955443 -28.077811 -3.121233 -4.006977 -18.468400 -17.389986 0.000003 0.000003 -0.000003 0.037149 3.396639 6.808499 0.332708 -1.730333 21.767167 0.162467 -1.220506 15.161145 0.000000 0.000000 -0.000000 -0.864001 -0.023505 17.257077 0.323823 -1.707940 21.470896 0.518706 -2.137802 27.273418 0.000000 -0.000000 -0.000001 2.087613 -6.657685 34.904227 0.373634 -1.829398 23.084006 0.625695 -2.333524 30.015437 -0.000001 0.000001 0.000001 -56.296779 -13.921149 32.171605 64.603249 -4.695737 -3.133742 -11.510367 4.697498 -15.560730 0.111141 0.000247 -0.131346 0.000000 -0.000000 -0.000000 -32.830797 -21.799001 3.617084 54.437202 8.431847 -0.390839 -30.543674 -21.033421 -6.951299 -0.000062 -0.000006 0.000005 0.000000 0.000005 -0.000000 
